<svg width="301" height="495" viewBox="0 0 301 495" fill="none" xmlns="http://www.w3.org/2000/svg">
<path d="M261.778 446.501L263.415 443.749L267.066 443.079L263.66 441.602L262.686 438.552L261.049 441.304L257.399 441.974L260.804 443.451L261.778 446.501Z" fill="#A02D91" fill-opacity="0.75"/>
<path d="M47.0174 442.567L48.6543 439.816L52.305 439.145L48.8996 437.669L47.9256 434.619L46.2887 437.37L42.6381 438.041L46.0434 439.517L47.0174 442.567Z" fill="#A02D91" fill-opacity="0.75"/>
<path d="M59.8334 240.501L61.4703 237.749L65.1209 237.079L61.7156 235.602L60.7416 232.552L59.1047 235.304L55.4541 235.974L58.8594 237.451L59.8334 240.501Z" fill="#A02D91" fill-opacity="0.75"/>
<path d="M20.4711 208.037L22.108 205.286L25.7586 204.616L22.3533 203.139L21.3793 200.089L19.7424 202.841L16.0918 203.511L19.4971 204.987L20.4711 208.037Z" fill="#A02D91" fill-opacity="0.75"/>
<path d="M20.4711 9.50053L22.108 6.74894L25.7586 6.07868L22.3533 4.60218L21.3793 1.55225L19.7424 4.30384L16.0918 4.9741L19.4971 6.4506L20.4711 9.50053Z" fill="#A02D91" fill-opacity="0.75"/>
<path d="M205.778 142.501L207.415 139.749L211.065 139.079L207.66 137.602L206.686 134.552L205.049 137.304L201.399 137.974L204.804 139.451L205.778 142.501Z" fill="#A02D91" fill-opacity="0.75"/>
<path d="M277.939 262.62L279.576 259.868L283.227 259.198L279.821 257.721L278.847 254.671L277.21 257.423L273.56 258.093L276.965 259.57L277.939 262.62Z" fill="#A02D91" fill-opacity="0.75"/>
<path d="M19.7779 415.501L21.4148 412.749L25.0655 412.079L21.6601 410.602L20.6861 407.552L19.0492 410.304L15.3986 410.974L18.8039 412.451L19.7779 415.501Z" fill="#A02D91" fill-opacity="0.75"/>
<path d="M173.793 478.19L175.43 475.438L179.08 474.768L175.675 473.292L174.701 470.242L173.064 472.993L169.414 473.664L172.819 475.14L173.793 478.19Z" fill="#A02D91" fill-opacity="0.75"/>
<path d="M294.575 310.82L296.253 307.706L299.919 306.901L296.529 305.291L295.596 301.878L293.918 304.992L290.252 305.797L293.642 307.407L294.575 310.82Z" fill="#A02D91" fill-opacity="0.5"/>
<path d="M44.232 273.156L45.9104 270.042L49.5763 269.237L46.1863 267.627L45.2538 264.214L43.5754 267.328L39.9095 268.133L43.2995 269.743L44.232 273.156Z" fill="#A02D91" fill-opacity="0.5"/>
<path d="M67.732 67.4942L69.4103 64.38L73.0763 63.5756L69.6863 61.9649L68.7537 58.5524L67.0754 61.6666L63.4094 62.471L66.7994 64.0817L67.732 67.4942Z" fill="#A02D91" fill-opacity="0.5"/>
<path d="M171.969 106.58L173.647 103.466L177.313 102.662L173.923 101.051L172.99 97.6385L171.312 100.753L167.646 101.557L171.036 103.168L171.969 106.58Z" fill="#A02D91" fill-opacity="0.5"/>
<path d="M202.488 271.109L204.166 267.994L207.832 267.19L204.442 265.579L203.509 262.167L201.831 265.281L198.165 266.085L201.555 267.696L202.488 271.109Z" fill="#A02D91" fill-opacity="0.5"/>
<path d="M222.695 94.2596L224.374 91.1454L228.04 90.3409L224.65 88.7303L223.717 85.3177L222.039 88.4319L218.373 89.2364L221.763 90.847L222.695 94.2596Z" fill="#A02D91" fill-opacity="0.5"/>
<path d="M222.695 9.49418L224.374 6.37999L228.04 5.57557L224.65 3.96489L223.717 0.552368L222.039 3.66656L218.373 4.47099L221.763 6.08166L222.695 9.49418Z" fill="#A02D91" fill-opacity="0.5"/>
<path d="M249.833 241.494L251.512 238.38L255.178 237.576L251.788 235.965L250.855 232.552L249.177 235.667L245.511 236.471L248.901 238.082L249.833 241.494Z" fill="#A02D91" fill-opacity="0.5"/>
<path d="M266.922 112.398L268.6 109.284L272.266 108.479L268.876 106.868L267.944 103.456L266.265 106.57L262.599 107.375L265.989 108.985L266.922 112.398Z" fill="#A02D91" fill-opacity="0.5"/>
<path d="M266.922 9.49418L268.6 6.37999L272.266 5.57557L268.876 3.96489L267.944 0.552368L266.265 3.66656L262.599 4.47099L265.989 6.08166L266.922 9.49418Z" fill="#A02D91" fill-opacity="0.5"/>
<path d="M102.514 494.201L104.193 491.087L107.859 490.283L104.469 488.672L103.536 485.26L101.858 488.374L98.1918 489.178L101.582 490.789L102.514 494.201Z" fill="#A02D91" fill-opacity="0.5"/>
<path d="M27.8334 167.494L29.5118 164.38L33.1777 163.576L29.7877 161.965L28.8551 158.552L27.1768 161.667L23.5109 162.471L26.9008 164.082L27.8334 167.494Z" fill="#A02D91" fill-opacity="0.5"/>
<path d="M216.456 395.499L215.482 392.449L212.077 390.972L215.728 390.302L217.365 387.55L218.339 390.6L221.744 392.077L218.093 392.747L216.456 395.499Z" fill="#A02D91" fill-opacity="0.24"/>
<path d="M241.778 484.5L240.804 481.451L237.399 479.974L241.049 479.304L242.686 476.552L243.66 479.602L247.065 481.079L243.415 481.749L241.778 484.5Z" fill="#A02D91" fill-opacity="0.24"/>
<path d="M111.51 371.429L110.536 368.379L107.131 366.902L110.782 366.232L112.419 363.481L113.393 366.531L116.798 368.007L113.147 368.677L111.51 371.429Z" fill="#A02D91" fill-opacity="0.24"/>
<path d="M198.778 431.5L197.804 428.451L194.399 426.974L198.049 426.304L199.686 423.552L200.66 426.602L204.065 428.079L200.415 428.749L198.778 431.5Z" fill="#A02D91" fill-opacity="0.24"/>
<path d="M215.83 312.894L214.856 309.844L211.451 308.367L215.101 307.697L216.738 304.945L217.712 307.995L221.118 309.472L217.467 310.142L215.83 312.894Z" fill="#A02D91" fill-opacity="0.24"/>
<path d="M4.8334 371.318L3.85939 368.268L0.454086 366.791L4.10469 366.121L5.7416 363.369L6.71561 366.419L10.1209 367.896L6.47031 368.566L4.8334 371.318Z" fill="#A02D91" fill-opacity="0.24"/>
<path d="M43.8334 375.5L42.8594 372.451L39.4541 370.974L43.1047 370.304L44.7416 367.552L45.7156 370.602L49.1209 372.079L45.4703 372.749L43.8334 375.5Z" fill="#A02D91" fill-opacity="0.24"/>
<path d="M274.99 394.135L274.016 391.085L270.61 389.609L274.261 388.938L275.898 386.187L276.872 389.237L280.277 390.713L276.627 391.383L274.99 394.135Z" fill="#A02D91" fill-opacity="0.24"/>
<path d="M41.0208 98.6633L40.0468 95.6134L36.6415 94.1369L40.2921 93.4666L41.929 90.715L42.903 93.7649L46.3083 95.2414L42.6577 95.9117L41.0208 98.6633Z" fill="#A02D91" fill-opacity="0.24"/>
<path d="M92.1734 91.4235L91.1994 88.3736L87.7941 86.8971L91.4447 86.2269L93.0816 83.4753L94.0556 86.5252L97.4609 88.0017L93.8103 88.6719L92.1734 91.4235Z" fill="#A02D91" fill-opacity="0.24"/>
<path d="M49.7779 30.5004L48.8039 27.4505L45.3986 25.974L49.0492 25.3038L50.6861 22.5522L51.6601 25.6021L55.0654 27.0786L51.4148 27.7489L49.7779 30.5004Z" fill="#A02D91" fill-opacity="0.24"/>
<path d="M245.778 54.5004L244.804 51.4505L241.399 49.974L245.049 49.3038L246.686 46.5522L247.66 49.6021L251.065 51.0786L247.415 51.7489L245.778 54.5004Z" fill="#A02D91" fill-opacity="0.24"/>
<path d="M19.7779 478.501L21.4148 475.749L25.0655 475.079L21.6601 473.602L20.6861 470.552L19.0492 473.304L15.3986 473.974L18.8039 475.451L19.7779 478.501Z" fill="#A02D91" fill-opacity="0.75"/>
<path d="M186.778 62.5005L188.415 59.7489L192.065 59.0787L188.66 57.6022L187.686 54.5523L186.049 57.3038L182.399 57.9741L185.804 59.4506L186.778 62.5005Z" fill="#A02D91" fill-opacity="0.75"/>
<path d="M127.778 118.494L129.456 115.38L133.122 114.575L129.732 112.965L128.8 109.552L127.121 112.666L123.455 113.471L126.845 115.081L127.778 118.494Z" fill="#A02D91" fill-opacity="0.5"/>
<path d="M61.7779 400.494L63.4563 397.38L67.1222 396.576L63.7322 394.965L62.7997 391.552L61.1213 394.667L57.4554 395.471L60.8454 397.082L61.7779 400.494Z" fill="#A02D91" fill-opacity="0.5"/>
<path d="M131.778 36.4942L133.456 33.38L137.122 32.5756L133.732 30.9649L132.8 27.5524L131.121 30.6666L127.455 31.471L130.845 33.0817L131.778 36.4942Z" fill="#A02D91" fill-opacity="0.5"/>
<path d="M128.778 433.494L130.456 430.38L134.122 429.576L130.732 427.965L129.8 424.552L128.121 427.667L124.455 428.471L127.845 430.082L128.778 433.494Z" fill="#A02D91" fill-opacity="0.5"/>
<path d="M46.7779 129.501L48.4148 126.749L52.0655 126.079L48.6601 124.602L47.6861 121.552L46.0492 124.304L42.3986 124.974L45.8039 126.451L46.7779 129.501Z" fill="#A02D91" fill-opacity="0.75"/>
</svg>
