<svg width="141" height="132" viewBox="0 0 141 132" fill="none" xmlns="http://www.w3.org/2000/svg">
<g clip-path="url(#clip0_134_3069)">
<mask id="mask0_134_3069" style="mask-type:luminance" maskUnits="userSpaceOnUse" x="1" y="36" width="70" height="96">
<path d="M1.21729 36.3887H70.9409V131.974H1.21729V36.3887Z" fill="white"/>
</mask>
<g mask="url(#mask0_134_3069)">
<path fill-rule="evenodd" clip-rule="evenodd" d="M1.21729 46.3487C1.21729 74.899 1.21729 103.425 1.21729 131.974C24.4477 123.885 47.6772 123.128 70.9059 128.664C70.9059 100.54 70.9059 72.3904 70.9059 44.2438C44.8655 32.843 21.8408 34.5212 1.21729 46.3487Z" fill="#C127AD"/>
</g>
<mask id="mask1_134_3069" style="mask-type:luminance" maskUnits="userSpaceOnUse" x="70" y="36" width="71" height="96">
<path d="M70.7222 36.3887H140.595V131.974H70.7222V36.3887Z" fill="white"/>
</mask>
<g mask="url(#mask1_134_3069)">
<path fill-rule="evenodd" clip-rule="evenodd" d="M140.595 46.3487C140.595 74.899 140.595 103.425 140.595 131.974C117.366 123.885 94.1353 123.128 70.9058 128.664C70.9058 100.54 70.9058 72.3904 70.9058 44.2438C96.9709 32.843 119.973 34.5212 140.595 46.3487Z" fill="#C127AD"/>
</g>
<path fill-rule="evenodd" clip-rule="evenodd" d="M5.12646 45.4506C5.42437 72.6521 5.72142 99.8297 6.01932 127.007C26.8708 119.25 48.499 119.155 70.9057 127.007C70.9057 99.4278 70.9057 71.8474 70.9057 44.244C48.4315 40.9086 26.4354 40.7903 5.12646 45.4506Z" fill="#C6A374"/>
<path fill-rule="evenodd" clip-rule="evenodd" d="M136.685 45.4506C136.389 72.6521 136.091 99.8297 135.816 127.007C114.942 119.25 93.3133 119.155 70.9058 127.007C70.9058 99.4278 70.9058 71.8474 70.9058 44.244C93.3816 40.9086 115.377 40.7903 136.685 45.4506Z" fill="#C6A374"/>
<path fill-rule="evenodd" clip-rule="evenodd" d="M70.9056 127.007C54.398 114.756 33.5005 112.791 8.48779 120.55C8.76179 93.6791 9.0597 66.7851 9.35589 39.8919C31.7634 32.3228 52.3631 33.4093 70.9056 44.2439C70.9056 71.8473 70.9056 99.4277 70.9056 127.007Z" fill="#E5BE8C"/>
<path fill-rule="evenodd" clip-rule="evenodd" d="M70.9058 127.007C87.4142 114.756 108.312 112.791 133.348 120.55C133.05 93.6791 132.752 66.7851 132.478 39.8919C110.049 32.3228 89.4491 33.4093 70.9058 44.2439C70.9058 71.8473 70.9058 99.4277 70.9058 127.007Z" fill="#E5BE8C"/>
<path fill-rule="evenodd" clip-rule="evenodd" d="M70.9057 44.2439C70.9057 71.8473 70.9057 99.4277 70.9057 127.007C54.8548 108.605 35.6278 108.914 15.3013 115.749C15.4848 88.3095 15.6897 60.8713 15.8732 33.4331C38.1424 26.6457 57.553 27.4266 70.9057 44.2439Z" fill="#FCD5A1"/>
<path fill-rule="evenodd" clip-rule="evenodd" d="M70.9058 44.2439C70.9058 71.8473 70.9058 99.4277 70.9058 127.007C86.9797 108.605 106.185 108.914 126.511 115.749C126.328 88.3095 126.123 60.8713 125.939 33.4331C103.67 26.6457 84.2584 27.4266 70.9058 44.2439Z" fill="#FCD5A1"/>
<path fill-rule="evenodd" clip-rule="evenodd" d="M58.8566 41.7832L58.5373 46.5628L62.1727 49.4945L57.6914 50.6772L56.114 55.1485L53.6437 51.103L49.0488 50.9369L51.998 47.2712L50.7406 42.6833L55.0154 44.4561L58.8566 41.7832Z" fill="#CB6CE6"/>
<path fill-rule="evenodd" clip-rule="evenodd" d="M75.7986 85.5659L76.9885 87.624L79.2974 87.7901L77.7653 89.5876L78.3363 91.9045L76.2109 90.9355L74.2672 92.2367L74.4738 89.8473L72.689 88.3095L74.9535 87.7901L75.7986 85.5659Z" fill="#CB6CE6"/>
<path fill-rule="evenodd" clip-rule="evenodd" d="M66.2869 103.023L67.7048 103.78L69.1226 102.999L68.8494 104.632L70.0154 105.766L68.4371 106.027L67.7508 107.517L67.0193 106.027L65.4419 105.814L66.5848 104.654L66.2869 103.023Z" fill="#CB6CE6"/>
<path fill-rule="evenodd" clip-rule="evenodd" d="M61.6007 15.9295L59.5888 19.3603L61.2115 23.0022L57.4386 22.08L54.5816 24.7997L54.2607 20.8019L50.8779 18.8392L54.4442 17.2784L55.2218 13.3521L57.7365 16.38L61.6007 15.9295Z" fill="#CB6CE6"/>
<path fill-rule="evenodd" clip-rule="evenodd" d="M84.3044 61.5816L83.047 63.7581L84.0525 66.053L81.6745 65.485L79.8691 67.188L79.6625 64.6803L77.5371 63.426L79.8 62.4561L80.2797 59.9731L81.881 61.889L84.3044 61.5816Z" fill="#CB6CE6"/>
<path fill-rule="evenodd" clip-rule="evenodd" d="M72.3695 29.271L72.232 31.3044L73.7873 32.5587L71.8667 33.0551L71.2035 34.9719L70.151 33.245L68.186 33.1735L69.4434 31.6126L68.8937 29.6491L70.7238 30.406L72.3695 29.271Z" fill="#CB6CE6"/>
<path fill-rule="evenodd" clip-rule="evenodd" d="M65.3276 68.0862L65.1901 70.1204L66.7454 71.3739L64.8248 71.8703L64.1616 73.7862L63.1091 72.0602L61.1211 71.9895L62.4015 70.4287L61.8518 68.4642L63.6819 69.2221L65.3276 68.0862Z" fill="#CB6CE6"/>
<path fill-rule="evenodd" clip-rule="evenodd" d="M62.6291 86.0625L62.5386 87.2929L63.4528 88.027L62.3311 88.3344L61.9214 89.4694L61.3026 88.4289L60.1152 88.405L60.869 87.459L60.548 86.3001L61.6466 86.7488L62.6291 86.0625Z" fill="#CB6CE6"/>
<path fill-rule="evenodd" clip-rule="evenodd" d="M76.3483 47.2234L76.2783 48.43L77.1934 49.1623L76.0504 49.4705L75.6612 50.6065L75.021 49.5898L73.855 49.5421L74.6096 48.596L74.2903 47.4371L75.3872 47.8859L76.3483 47.2234Z" fill="#CB6CE6"/>
<path fill-rule="evenodd" clip-rule="evenodd" d="M85.6762 16.6875L87.4141 18.7686L90.0431 18.4603L88.6714 20.8019L89.7683 23.3105L87.1845 22.671L85.2195 24.5171L85.0129 21.7957L82.7031 20.4239L85.1495 19.3834L85.6762 16.6875Z" fill="#CB6CE6"/>
<path fill-rule="evenodd" clip-rule="evenodd" d="M97.4508 39.2056L99.1896 41.2866L101.818 40.9801L100.446 43.3209L101.543 45.8286L98.9608 45.19L97.0172 47.0591L96.7876 44.3137L94.4795 42.9649L96.925 41.9005L97.4508 39.2056Z" fill="#CB6CE6"/>
<path fill-rule="evenodd" clip-rule="evenodd" d="M96.5589 69.3168L100.446 70.2629L103.396 67.4478L103.738 71.5878L107.214 73.5965L103.534 75.2059L102.756 79.2753L100.127 76.1519L96.1475 76.6262L98.2285 73.0762L96.5589 69.3168Z" fill="#CB6CE6"/>
<path fill-rule="evenodd" clip-rule="evenodd" d="M45.0469 79.8652L47.2423 78.1869L47.1279 75.3718L49.3464 77.028L51.9285 76.0573L51.0826 78.731L52.7753 80.9535L50.054 80.9773L48.5227 83.3189L47.6537 80.6461L45.0469 79.8652Z" fill="#CB6CE6"/>
<mask id="mask2_134_3069" style="mask-type:luminance" maskUnits="userSpaceOnUse" x="70" y="4" width="9" height="8">
<path d="M70.9409 4.10376H78.5891V11.967H70.9409V4.10376Z" fill="white"/>
</mask>
<g mask="url(#mask2_134_3069)">
<path fill-rule="evenodd" clip-rule="evenodd" d="M74.0615 4.10278L75.7986 6.18474L78.4285 5.87735L77.0576 8.21812L78.1545 10.7267L75.5707 10.0872L73.604 11.9554L73.3983 9.21272L71.0894 7.86391L73.5357 6.79952L74.0615 4.10278Z" fill="#CB6CE6"/>
</g>
</g>
<defs>
<clipPath id="clip0_134_3069">
<rect width="140" height="132" fill="white" transform="translate(0.5)"/>
</clipPath>
</defs>
</svg>
