<svg width="243" height="207" viewBox="0 0 243 207" fill="none" xmlns="http://www.w3.org/2000/svg">
<g clip-path="url(#clip0_134_2579)">
<path d="M48.3347 163.034C48.1771 161.904 47.3382 155.213 47.1807 154.057C46.9461 152.036 48.6496 151.933 48.4118 150.854C48.2029 149.857 44.3489 149.831 43.5871 149.831C42.88 149.831 40.9675 149.908 40.6525 150.671H40.6268L37.7436 159.362L34.5486 150.594C34.1532 149.911 32.1893 149.86 31.5079 149.86C30.7493 149.86 27.0786 149.911 26.7893 150.832C26.5 151.855 28.4414 152.065 28.2036 154.034L27.0496 163.115C26.815 165.059 25.0825 165.187 25.1339 166.211C25.1886 167.132 27.2296 167.235 27.9914 167.235C28.7532 167.235 30.9004 167.235 31.1125 166.266C31.3471 165.187 29.0939 165.136 29.3543 163.115C29.4604 162.3 29.9329 158.415 30.2479 155.95L33.6807 165.4C33.9154 166.082 34.5743 166.53 35.3071 166.53H36.4096C37.1682 166.53 37.8239 166.057 38.0618 165.348L41.2343 155.608L42.1761 163.037C42.4107 165.007 40.6043 165.216 40.9193 166.269C41.1796 167.186 45.0336 167.267 45.7954 167.267C46.5539 167.267 50.4079 167.238 50.3821 166.269C50.3275 165.187 48.595 165.081 48.3347 163.034Z" fill="#C127AD"/>
<path d="M58.5543 155.029C59.8368 155.029 60.2836 156.658 60.3093 157.707C60.3639 159.729 59.3129 160.833 58.0304 160.833C57.8214 160.833 57.6093 160.804 57.4004 160.778C57.1111 160.095 56.9279 159.333 56.8764 158.547C56.7993 157.285 57.3232 155.132 58.5543 155.029ZM64.8222 161.853C64.0893 162.983 62.8293 163.717 61.5982 163.797C59.9718 163.797 58.7664 163.063 57.9018 161.698C58.3454 161.908 59.0043 162.014 59.7372 162.014C62.2797 162.014 65.8957 160.781 65.4264 157.736C65.1918 156.107 63.485 154.167 59.1072 154.167C55.1247 154.167 51.2964 156.397 51.2964 160.807C51.2964 164.743 54.7293 167.421 58.7954 167.421C62.2539 167.421 65.2689 165.451 66.0822 162.435C66.2139 161.911 65.7929 161.541 65.375 161.541C65.1629 161.537 64.9507 161.644 64.8222 161.853Z" fill="#C127AD"/>
<path d="M83.773 163.06C83.773 160.067 83.7473 158.464 83.7987 157.205C83.8244 155.763 84.0076 153.899 83.0144 153.899C82.8055 153.899 82.5419 154.002 82.2012 154.189C80.2083 155.319 79.0576 155.605 76.8815 156.313C75.8048 156.655 75.9912 157.652 76.9619 157.836C77.5662 157.968 77.8523 158.599 77.8523 160.33V162.088C77.7205 163.504 77.1451 165.056 75.8337 165.056C74.5737 165.056 74.6798 162.957 74.6798 161.222C74.6798 161.222 74.654 158.019 74.6798 157.205C74.7055 155.763 74.8887 153.899 73.8955 153.899C73.6865 153.899 73.423 154.002 73.0823 154.189C71.0894 155.319 69.9387 155.605 67.7626 156.313C66.6858 156.655 66.8723 157.652 67.843 157.836C68.4473 157.968 68.7333 158.599 68.7333 160.33C68.7333 160.33 68.7333 162.51 68.7333 163.243C68.7333 165.686 70.649 167.392 73.4262 167.392C75.3676 167.392 77.0423 166.71 77.9873 164.898C78.2219 166.208 78.9033 167.286 80.819 167.286C81.5776 167.286 85.3287 167.26 85.4315 166.263C85.5023 165.213 83.773 165.107 83.773 163.06Z" fill="#C127AD"/>
<path d="M104.374 155.947C104.374 159.017 103.271 160.041 101.439 160.041C100.52 160.041 100.102 159.516 100.102 158.599C100.102 156.603 100.102 154.608 100.102 154.031C100.102 151.984 100.732 151.46 101.831 151.46C103.509 151.563 104.374 152.979 104.374 155.947ZM100.78 161.798C106.55 161.644 110.561 159.832 110.561 155.947C110.561 151.904 106.209 149.831 100.076 149.805C98.8452 149.805 92.423 149.805 92.2623 150.803C92.1048 151.852 93.9402 152.065 93.9402 154.035V163.037C93.9402 165.007 92.1048 165.217 92.2623 166.269C92.4198 167.186 96.2738 167.267 97.0323 167.267C97.7909 167.267 101.645 167.238 101.751 166.269C101.831 165.191 100.099 165.088 100.099 163.037C100.099 162.88 100.099 162.619 100.099 162.252C100.128 161.853 100.546 161.798 100.78 161.798Z" fill="#C127AD"/>
<path d="M118.606 155.029C119.888 155.029 120.335 156.658 120.361 157.707C120.415 159.729 119.364 160.833 118.082 160.833C117.873 160.833 117.661 160.804 117.452 160.778C117.162 160.095 116.979 159.333 116.928 158.547C116.851 157.285 117.375 155.132 118.606 155.029ZM124.87 161.853C124.137 162.983 122.877 163.717 121.646 163.797C120.02 163.797 118.815 163.063 117.95 161.698C118.393 161.908 119.052 162.014 119.785 162.014C122.328 162.014 125.944 160.781 125.475 157.736C125.24 156.107 123.533 154.167 119.155 154.167C115.173 154.167 111.345 156.397 111.345 160.807C111.345 164.743 114.777 167.421 118.843 167.421C122.302 167.421 125.317 165.451 126.13 162.435C126.262 161.911 125.841 161.541 125.423 161.541C125.211 161.537 125.002 161.644 124.87 161.853Z" fill="#C127AD"/>
<path d="M135.38 164.109C133.937 164.109 133.362 161.721 133.204 160.617C132.918 158.544 133.23 156.787 134.252 156.629C135.721 156.629 136.271 158.991 136.428 160.121C136.743 162.194 136.377 163.951 135.38 164.109ZM142.773 168.783C142.143 168.651 141.883 168.023 141.883 166.288C141.883 166.288 141.883 159.593 141.883 158.57C141.883 156.548 143.612 156.445 143.509 155.367C143.432 154.553 142.044 154.369 141.15 154.369C140.992 154.369 140.861 154.398 140.732 154.398C137.505 154.582 137.399 156.13 136.981 156.13C136.952 156.13 136.901 156.101 136.849 156.075C135.644 155.235 134.885 154.343 132.552 154.292C132.497 154.292 132.446 154.292 132.42 154.292C129.903 154.292 126.731 156.391 126.94 160.855C127.149 164.74 129.771 167.495 132.812 167.444C134.619 167.392 135.853 166.028 136.168 165.03C136.168 165.03 136.087 169.124 136.087 169.439C136.036 170.859 136.01 172.536 137.007 172.536C137.241 172.536 137.531 172.459 137.897 172.246C139.89 171.116 140.674 170.988 142.85 170.302C143.927 169.938 143.744 168.966 142.773 168.783Z" fill="#C127AD"/>
<path d="M161.383 163.06C161.383 160.067 161.357 158.464 161.409 157.205C161.435 155.763 161.618 153.899 160.625 153.899C160.416 153.899 160.152 154.002 159.811 154.189C157.818 155.319 156.668 155.605 154.492 156.313C153.415 156.655 153.601 157.652 154.572 157.836C155.17 157.968 155.459 158.599 155.459 160.33V162.088C155.327 163.504 154.752 165.056 153.441 165.056C152.181 165.056 152.287 162.957 152.287 161.222C152.287 161.222 152.261 158.019 152.287 157.205C152.312 155.763 152.496 153.899 151.502 153.899C151.293 153.899 151.03 154.002 150.689 154.189C148.696 155.319 147.546 155.605 145.37 156.313C144.293 156.655 144.479 157.652 145.45 157.836C146.054 157.968 146.34 158.599 146.34 160.33C146.34 160.33 146.34 162.51 146.34 163.243C146.34 165.686 148.256 167.392 151.033 167.392C152.975 167.392 154.649 166.71 155.594 164.898C155.829 166.208 156.51 167.286 158.426 167.286C159.185 167.286 162.936 167.26 163.038 166.263C163.112 165.213 161.383 165.107 161.383 163.06Z" fill="#C127AD"/>
<path d="M171.211 155.029C172.494 155.029 172.941 156.658 172.966 157.707C173.021 159.729 171.97 160.833 170.687 160.833C170.478 160.833 170.266 160.804 170.057 160.778C169.768 160.095 169.585 159.333 169.533 158.547C169.456 157.285 169.98 155.132 171.211 155.029ZM177.476 161.853C176.743 162.983 175.483 163.717 174.252 163.797C172.626 163.797 171.42 163.063 170.556 161.698C170.999 161.908 171.658 162.014 172.391 162.014C174.933 162.014 178.55 160.781 178.08 157.736C177.846 156.107 176.139 154.167 171.761 154.167C167.778 154.167 163.95 156.397 163.95 160.807C163.95 164.743 167.383 167.421 171.449 167.421C174.908 167.421 177.923 165.451 178.736 162.435C178.868 161.911 178.447 161.541 178.029 161.541C177.82 161.537 177.608 161.644 177.476 161.853Z" fill="#C127AD"/>
<path d="M196.324 163.086C196.35 160.066 196.35 159.648 196.35 158.386C196.35 155.943 194.437 154.237 191.657 154.237C189.69 154.237 188.015 154.945 187.07 156.783C186.781 155.444 186.597 153.922 185.762 153.922C185.527 153.922 185.238 154.028 184.897 154.289C183.428 155.338 182.589 155.705 180.413 156.413C179.336 156.754 179.523 157.726 180.494 157.936C181.098 158.042 181.384 158.67 181.384 160.404V163.082C181.384 165.052 179.549 165.262 179.706 166.285C179.864 167.202 183.586 167.283 184.347 167.283C185.106 167.283 188.751 167.257 188.828 166.285C188.934 165.207 187.202 165.104 187.202 163.082C187.202 161.795 187.202 160.797 187.202 159.986C187.256 158.438 187.806 156.574 189.246 156.574C190.503 156.574 190.4 158.673 190.4 160.408V163.086C190.4 165.056 190.689 167.286 193.364 167.286C194.148 167.286 197.899 167.26 197.979 166.288C198.053 165.213 196.324 165.107 196.324 163.086Z" fill="#C127AD"/>
<path d="M208.195 165.764C208.093 165.789 208.012 165.789 207.906 165.789C206.701 165.789 205.679 163.845 205.074 161.354C204.419 158.702 204.052 156.262 205.364 155.946C205.47 155.921 205.573 155.921 205.679 155.921C207.016 155.921 207.906 158.177 208.459 160.382C209.14 162.954 209.558 165.448 208.195 165.764ZM206.73 154.292C202.455 154.292 198.89 156.915 198.89 160.855C198.89 164.766 202.455 167.418 206.73 167.418C210.976 167.418 214.566 164.766 214.566 160.855C214.566 156.944 210.976 154.292 206.73 154.292Z" fill="#C127AD"/>
<path d="M42.0839 190.901C41.9521 189.26 36.0186 189.218 34.7361 189.218C33.4086 189.218 27.3432 189.395 27.0764 190.901C26.7678 192.63 30.085 192.984 30.085 196.267C30.085 196.267 30.7053 200.123 28.4939 200.123C28.1371 200.123 27.6968 200.033 27.1664 199.769C23.7593 197.773 20.7925 192.411 20.7475 185.362C20.7475 181.506 22.12 176.761 26.6778 176.761C29.1561 176.761 30.8403 178.49 30.7953 181.992C30.7953 185.004 32.4764 186.556 35.665 186.736C37.2143 186.781 40.6246 185.629 40.4028 181.992C40.2711 179.819 37.0407 174.103 27.0346 174.103C26.4593 174.103 25.8839 174.103 25.2636 174.148C16.8968 174.637 10.1243 180.617 10.1243 189.395C10.1243 198.926 17.8289 204.732 26.8578 204.732C32.2578 204.732 35.8868 203.58 38.0564 202.292C38.9853 201.761 39.5607 200.741 39.6057 199.679C39.6057 198.436 39.6057 196.975 39.6057 196.93C39.6057 193.56 42.2157 192.675 42.0839 190.901Z" fill="#C127AD"/>
<path d="M69.3394 185.123C68.9473 181.947 66.2537 180.073 62.9494 180.073C59.5166 180.073 57.0801 181.901 55.4698 184.908C55.0358 182.819 54.6887 180.685 53.3419 180.685C52.9948 180.685 52.5158 180.859 51.9501 181.251C49.5169 182.993 48.1251 183.601 44.5187 184.779C42.7348 185.346 43.0401 186.958 44.6473 187.306C45.6469 187.48 46.1258 188.526 46.1258 191.397V195.839C46.1258 199.102 43.0819 199.45 43.3455 201.15C43.6058 202.672 49.7805 202.804 51.0405 202.804C52.3005 202.804 58.3433 202.759 58.4719 201.15C58.6455 199.363 55.7751 199.189 55.7751 195.839C55.7751 194.532 55.7751 193.399 55.7751 192.443C55.7333 188.091 57.9062 182.996 60.8633 182.996C60.9083 182.996 60.9951 182.996 61.0369 182.996C62.8626 183.17 59.7319 184.258 59.7769 186.739C59.8219 188.613 61.0819 190.528 64.1676 190.528C64.383 190.528 64.5598 190.483 64.7751 190.483C68.1662 190.216 69.6448 187.428 69.3394 185.123Z" fill="#C127AD"/>
<path d="M82.8562 195.832C82.8562 190.827 82.8112 189.388 82.8562 187.299C82.9012 184.731 83.1166 182.117 81.2041 182.117C80.9437 182.117 80.6834 182.162 80.3362 182.249C76.9034 183.25 75.4666 183.598 71.8602 184.773C70.1212 185.294 70.4234 186.952 71.9887 187.254C72.9466 187.47 73.4255 188.516 73.4255 191.39V195.832C73.4255 199.096 70.4684 199.444 70.7287 201.143C70.9891 202.666 76.9034 202.798 78.1184 202.798C79.3366 202.798 85.2927 202.753 85.4245 201.143C85.598 199.357 82.8562 199.183 82.8562 195.832ZM77.5559 180.855C80.7734 180.855 83.3802 178.766 83.3802 176.156C83.3802 173.588 80.7734 171.499 77.5559 171.499C74.2934 171.499 71.6866 173.588 71.6866 176.156C71.6866 178.766 74.2934 180.855 77.5559 180.855Z" fill="#C127AD"/>
<path d="M127.809 195.832C127.809 190.827 127.809 190.129 127.809 188.04C127.809 183.945 124.636 181.161 119.94 181.161C117.028 181.161 114.637 182.162 113.332 184.95C112.419 182.468 109.899 181.119 106.591 181.119C103.592 181.119 100.809 182.033 99.3302 184.908C98.8963 182.819 98.5492 180.685 97.2024 180.685C96.8552 180.685 96.3763 180.859 95.8106 181.251C93.3774 182.993 91.9856 183.601 88.3792 184.779C86.5952 185.346 86.9006 186.958 88.5077 187.306C89.5074 187.48 89.9863 188.526 89.9863 191.397V195.839C89.9863 199.103 86.9424 199.45 87.206 201.15C87.4663 202.672 93.641 202.804 94.901 202.804C96.161 202.804 102.204 202.759 102.332 201.15C102.506 199.363 99.6356 199.189 99.6356 195.839C99.6356 193.444 99.6356 191.658 99.6356 190.177C99.7224 187.74 100.156 185.04 101.94 185.04C104.026 184.995 103.898 188.522 103.898 191.394V195.835C103.898 199.099 104.332 202.801 108.812 202.801C110.072 202.801 116.289 202.756 116.421 201.146C116.552 199.36 113.682 199.186 113.682 195.835C113.727 193.309 113.727 191.699 113.727 190.438C113.772 187.956 114.206 185.04 116.032 185.04C118.16 184.995 117.989 188.522 117.989 191.394V195.835C117.989 199.099 118.423 202.801 122.901 202.801C124.161 202.801 130.38 202.756 130.509 201.146C130.676 199.357 127.809 199.183 127.809 195.832Z" fill="#C127AD"/>
<path d="M147.453 200.271C147.28 200.316 147.148 200.316 146.977 200.316C144.978 200.316 143.281 197.094 142.281 192.958C141.195 188.561 140.584 184.512 142.757 183.991C142.931 183.945 143.107 183.945 143.278 183.945C145.496 183.945 146.974 187.692 147.887 191.345C149.018 195.613 149.713 199.75 147.453 200.271ZM145.02 181.248C137.932 181.248 132.021 185.603 132.021 192.131C132.021 198.617 137.936 203.013 145.02 203.013C152.062 203.013 158.018 198.617 158.018 192.131C158.018 185.645 152.062 181.248 145.02 181.248ZM140.935 180.334C141.976 178.895 143.194 177.112 148.585 176.719C152.194 176.459 152.368 171.582 149.15 170.668C148.758 170.581 148.411 170.536 148.019 170.536C143.888 170.536 140.15 176.327 140.022 179.375C139.977 179.941 140.327 180.508 140.629 180.508C140.761 180.508 140.845 180.463 140.935 180.334Z" fill="#C127AD"/>
<path d="M185.578 185.123C185.186 181.947 182.493 180.073 179.188 180.073C175.756 180.073 173.319 181.901 171.709 184.908C171.275 182.819 170.928 180.685 169.581 180.685C169.234 180.685 168.755 180.859 168.189 181.251C165.756 182.993 164.364 183.601 160.758 184.779C158.974 185.346 159.279 186.958 160.886 187.306C161.886 187.48 162.365 188.526 162.365 191.397V195.839C162.365 199.102 159.321 199.45 159.585 201.15C159.845 202.672 166.02 202.804 167.28 202.804C168.54 202.804 174.582 202.759 174.711 201.15C174.885 199.363 172.014 199.189 172.014 195.839C172.014 194.532 172.014 193.399 172.014 192.443C171.972 188.085 174.145 182.989 177.099 182.989C177.144 182.989 177.231 182.989 177.273 182.989C179.098 183.163 175.968 184.251 176.013 186.733C176.058 188.606 177.318 190.521 180.403 190.521C180.619 190.521 180.796 190.476 181.011 190.476C184.405 190.216 185.881 187.428 185.578 185.123Z" fill="#C127AD"/>
<path d="M199.095 195.832C199.095 190.827 199.05 189.388 199.095 187.299C199.14 184.731 199.356 182.117 197.443 182.117C197.183 182.117 196.923 182.162 196.575 182.249C193.143 183.25 191.706 183.598 188.099 184.773C186.36 185.294 186.663 186.952 188.228 187.254C189.186 187.47 189.665 188.516 189.665 191.39V195.832C189.665 199.096 186.708 199.444 186.968 201.143C187.228 202.666 193.143 202.798 194.358 202.798C195.576 202.798 201.532 202.753 201.664 201.143C201.834 199.357 199.095 199.183 199.095 195.832ZM193.792 180.855C197.009 180.855 199.616 178.766 199.616 176.156C199.616 173.588 197.009 171.499 193.792 171.499C190.529 171.499 187.923 173.588 187.923 176.156C187.923 178.766 190.533 180.855 193.792 180.855Z" fill="#C127AD"/>
<path d="M218.613 200.271C218.44 200.316 218.308 200.316 218.138 200.316C216.138 200.316 214.441 197.094 213.441 192.958C212.355 188.561 211.744 184.512 213.917 183.99C214.091 183.945 214.268 183.945 214.438 183.945C216.656 183.945 218.134 187.692 219.047 191.345C220.179 195.613 220.873 199.749 218.613 200.271ZM216.18 181.248C209.093 181.248 203.181 185.603 203.181 192.131C203.181 198.616 209.096 203.013 216.18 203.013C223.223 203.013 229.179 198.616 229.179 192.131C229.179 185.645 223.223 181.248 216.18 181.248Z" fill="#C127AD"/>
<path d="M101.613 130.505C95.8918 134.503 85.0629 112.793 91.7229 108.119C93.0118 107.211 164.819 75.4551 164.819 75.4551L165.738 102.998L101.613 130.505Z" fill="#E6E6E6"/>
<path d="M100.093 132.009C98.0357 132.009 95.6861 130.312 93.4618 127.123C89.3475 121.229 86.1525 110.781 91.125 107.276C92.43 106.362 152.389 79.8262 164.398 74.5185C164.472 74.4831 164.552 74.4605 164.633 74.4444C164.716 74.4284 164.796 74.4251 164.88 74.4316C164.964 74.438 165.044 74.4541 165.121 74.4799C165.201 74.5056 165.275 74.541 165.346 74.5829C165.417 74.6279 165.481 74.6794 165.536 74.7406C165.594 74.8017 165.642 74.8661 165.684 74.9369C165.725 75.0077 165.758 75.085 165.78 75.1622C165.803 75.2427 165.815 75.3232 165.819 75.4069L166.738 102.95C166.744 103.159 166.69 103.352 166.58 103.529C166.468 103.703 166.317 103.835 166.124 103.915L102.121 131.4C101.501 131.812 100.829 132.015 100.093 132.009ZM163.861 76.9873C143.238 86.1092 93.9568 107.968 92.2886 108.985C88.9586 111.322 91.1218 120.199 95.1525 125.977C96.9268 128.523 99.4146 130.837 101.054 129.691C101.112 129.652 101.173 129.62 101.234 129.595L164.719 102.341L163.861 76.9873Z" fill="#C127AD"/>
<path d="M46.44 31.6767C55.1443 27.8625 97.4185 9.683 109.421 4.54266C109.649 4.44288 109.884 4.36241 110.128 4.30125C110.369 4.2401 110.616 4.19825 110.864 4.17572C111.111 4.15319 111.359 4.14997 111.61 4.16606C111.857 4.18216 112.105 4.22078 112.349 4.2755C112.593 4.33344 112.831 4.40747 113.062 4.50081C113.294 4.59416 113.516 4.7036 113.731 4.83235C113.946 4.9611 114.149 5.10594 114.342 5.26688C114.531 5.42781 114.711 5.60163 114.872 5.78831L170.637 70.1472C171.447 73.5849 170.855 76.7392 168.181 79.4848L101.935 108.666C100.623 111.347 98.9935 112.635 96.8946 111.878C94.1946 118.557 94.7153 123.54 99.18 126.43C99.5271 126.652 99.9032 126.784 100.315 126.817C100.723 126.852 101.118 126.788 101.494 126.623L166.117 98.8134L165.754 90.6185C170.871 94.4585 174.982 99.367 171.141 103.58C170.849 103.902 170.505 104.147 170.106 104.317L104.365 133.135C104.088 133.257 103.802 133.338 103.506 133.386C99.421 133.998 95.6507 132.955 92.2853 130.502C91.9575 130.261 91.681 129.968 91.456 129.627L39.9568 53.5996C39.3557 52.7209 39.0182 51.7553 38.9378 50.6963C38.4653 44.0303 40.1528 38.3621 43.846 33.653C44.5435 32.7743 45.4082 32.1177 46.44 31.6767Z" fill="#A871E0"/>
<path d="M101.228 134.58C99.5047 134.571 97.8268 134.287 96.1972 133.734C94.5643 133.18 93.0632 132.382 91.6907 131.342C91.2697 131.03 90.9129 130.653 90.6172 130.216L39.1179 54.1726C38.4172 53.1459 38.0186 52.0096 37.9286 50.7704C37.4432 43.9306 39.1661 37.9598 43.0489 33.0254C43.8557 32.018 44.8522 31.2583 46.0382 30.7466C54.7554 26.9323 96.4543 9.00069 109.022 3.59319C109.302 3.47409 109.588 3.37431 109.88 3.30028C110.176 3.22625 110.472 3.17475 110.774 3.14578C111.076 3.11681 111.378 3.11359 111.68 3.13612C111.983 3.15544 112.281 3.2005 112.577 3.26809C112.873 3.33569 113.162 3.42581 113.442 3.54169C113.725 3.65756 113.995 3.78953 114.255 3.94725C114.512 4.10497 114.76 4.282 114.991 4.47512C115.223 4.67147 115.438 4.88391 115.637 5.11566L171.566 69.658L171.624 69.8994C172.569 73.8971 171.656 77.3573 168.911 80.1769L168.773 80.3185L168.596 80.399L102.684 109.451C101.025 112.638 99.0997 113.285 97.5311 113.073C95.2972 119.079 96.0268 123.176 99.7425 125.584C99.945 125.716 100.167 125.79 100.408 125.812C100.649 125.835 100.88 125.796 101.102 125.7L165.086 98.1568L164.655 88.5167L166.368 89.8042C170.92 93.2193 173.366 96.4509 173.649 99.4154C173.687 99.8563 173.678 100.301 173.62 100.738C173.562 101.179 173.459 101.607 173.308 102.026C173.157 102.441 172.961 102.84 172.726 103.214C172.488 103.59 172.215 103.935 171.9 104.25C171.511 104.675 171.051 105 170.524 105.228L104.766 134.062C104.41 134.22 104.04 134.326 103.654 134.387C102.851 134.519 102.041 134.58 101.228 134.58ZM46.845 32.6038C45.9707 32.9804 45.2347 33.5372 44.6368 34.2775C41.0722 38.7999 39.4907 44.3039 39.9472 50.6256C40.0114 51.5043 40.2943 52.309 40.7925 53.0364L92.2918 129.07C92.4493 129.311 92.6486 129.517 92.8832 129.691C96.12 132.044 99.6332 132.952 103.355 132.398C103.564 132.366 103.764 132.305 103.953 132.221L169.701 103.397C169.965 103.281 170.196 103.117 170.393 102.901C170.826 102.473 171.151 101.971 171.363 101.398C171.575 100.825 171.656 100.233 171.604 99.6246C171.418 97.6418 169.782 95.3115 166.844 92.8073L167.143 99.4765L101.877 127.56C101.616 127.673 101.343 127.753 101.06 127.798C100.778 127.843 100.495 127.856 100.212 127.831C99.9289 127.805 99.6493 127.747 99.3793 127.657C99.1093 127.563 98.8554 127.441 98.6175 127.283C93.8539 124.203 92.9539 118.892 95.94 111.486L96.3032 110.584L97.2579 110.919C97.83 111.128 99.3536 111.676 101.044 108.219L101.205 107.887L101.546 107.736L167.612 78.619C169.714 76.382 170.405 73.7587 169.727 70.6011L114.107 6.42891C113.85 6.12956 113.548 5.8785 113.21 5.6725C112.873 5.46972 112.51 5.32166 112.124 5.23475C111.738 5.14784 111.349 5.11887 110.954 5.1575C110.562 5.19291 110.183 5.28947 109.819 5.44719C97.2514 10.8515 55.5622 28.7799 46.8482 32.5845V32.6038H46.845Z" fill="#C127AD"/>
<path d="M59.2521 40.9596C59.2521 40.9596 94.0275 92.5175 94.1529 92.1538C97.7271 87.8117 106.155 90.8695 106.981 94.9895C106.981 94.9895 156.899 73.8488 156.536 73.7941C152.322 69.806 153.704 63.1561 158.005 62.0488L117.231 14.8073C112.609 17.3919 108.267 16.6291 104.223 12.332L62.73 30.4987C63.5239 35.0017 62.4086 38.5101 59.2521 40.9596Z" fill="#CB6CE6"/>
<path d="M106.968 96.01C106.801 96.0132 106.64 95.9713 106.496 95.8909C106.21 95.7428 106.036 95.5111 105.975 95.1956C105.657 93.5734 103.603 91.9543 101.099 91.3203C98.5275 90.6733 96.2196 91.2269 94.9243 92.7977C94.7539 93.0101 94.5289 93.1324 94.2589 93.1614C93.5968 93.2386 93.5968 93.2354 91.7164 90.551C90.7843 89.2216 89.4407 87.2711 87.7082 84.7476C84.7993 80.5052 80.7653 74.5763 75.7285 67.141C67.1432 54.4849 58.4935 41.6549 58.41 41.523C58.336 41.4168 58.2878 41.3009 58.2589 41.1754C58.23 41.0498 58.2268 40.9243 58.246 40.7955C58.2685 40.67 58.3103 40.5509 58.3746 40.4383C58.4389 40.3288 58.5225 40.2355 58.6253 40.155C61.4539 37.9598 62.4696 34.8634 61.7303 30.6758C61.711 30.5631 61.7078 30.4505 61.7271 30.3378C61.7464 30.2252 61.7818 30.1189 61.8364 30.0192C61.891 29.9194 61.9585 29.8293 62.0421 29.752C62.1257 29.6748 62.2189 29.6136 62.325 29.5685L103.821 11.4051C104.017 11.3182 104.22 11.2957 104.429 11.3375C104.638 11.3794 104.818 11.4792 104.962 11.6369C108.646 15.5509 112.5 16.2976 116.743 13.9254C116.846 13.8675 116.952 13.8288 117.067 13.8095C117.183 13.7902 117.296 13.7902 117.411 13.8128C117.527 13.8353 117.633 13.8739 117.736 13.9286C117.839 13.9866 117.926 14.0606 118 14.1475L158.763 61.3955C158.821 61.4631 158.866 61.5339 158.905 61.6112C158.943 61.6884 158.969 61.7689 158.988 61.8526C159.007 61.9363 159.014 62.0232 159.007 62.1069C159.004 62.1938 158.988 62.2775 158.962 62.3579C158.937 62.4416 158.901 62.5189 158.856 62.5929C158.808 62.6669 158.757 62.7313 158.692 62.7893C158.628 62.8504 158.561 62.8987 158.487 62.9405C158.41 62.9824 158.329 63.0146 158.249 63.0339C156.783 63.4105 155.645 64.6529 155.195 66.391C155.051 66.9865 154.986 67.5884 155.006 68.2C155.025 68.8115 155.121 69.4102 155.301 69.996C155.478 70.5818 155.729 71.1355 156.054 71.6537C156.381 72.1719 156.767 72.6354 157.217 73.0506C157.397 73.218 157.506 73.4208 157.542 73.6654C157.638 74.425 157.069 74.689 156.401 74.9883C156.037 75.1557 155.504 75.3939 154.819 75.69C153.463 76.2855 151.528 77.1191 149.201 78.1202C145.09 79.884 139.355 82.3367 132.162 85.4106C119.767 90.6636 107.376 95.9295 107.376 95.9295C107.241 95.9907 107.106 96.0132 106.968 96.01ZM99.0418 89.0285C99.9032 89.0317 100.752 89.1412 101.584 89.3568C104.374 90.0585 106.621 91.7065 107.566 93.6474C120.227 88.285 148.715 76.1857 154.877 73.4691C154.462 72.9412 154.115 72.3715 153.829 71.7631C153.543 71.1548 153.334 70.5239 153.193 69.8673C153.051 69.2107 152.99 68.5476 153 67.8749C153.01 67.2022 153.1 66.5423 153.26 65.8889C153.463 65.007 153.826 64.1991 154.353 63.4652C154.88 62.7313 155.53 62.1326 156.301 61.6595L116.99 16.0788C112.362 18.3512 107.994 17.5014 103.992 13.5392L63.8485 31.1328C64.4046 35.3237 63.3118 38.6937 60.5925 41.1657C72.9064 59.4257 90.6525 85.6327 94.2493 90.6507C94.9307 90.1068 95.6828 89.698 96.5089 89.418C97.335 89.1379 98.1803 89.0092 99.0514 89.0285H99.0418Z" fill="#C127AD"/>
<path d="M108.18 115.403L118.475 111.009C118.552 110.974 118.63 110.964 118.713 110.98C118.794 110.997 118.864 111.032 118.925 111.09L125.926 117.569V126.163L139.857 140.693L128.366 140.203C128.366 140.203 127.642 148.402 127.765 148.035C127.887 147.665 114.695 132.746 114.695 132.746L115.242 122.15L108.077 116.118C107.942 116.021 107.888 115.892 107.913 115.728C107.933 115.564 108.026 115.458 108.18 115.403Z" fill="#CB6CE6"/>
<path d="M127.755 149.055C127.688 149.061 127.62 149.061 127.553 149.055C127.366 149.039 127.205 148.971 127.067 148.846C126.929 148.723 126.842 148.569 126.807 148.385C125.949 147.127 118.54 138.629 113.943 133.428C113.76 133.222 113.673 132.984 113.689 132.707L114.21 122.619L107.428 116.913C107.331 116.832 107.251 116.745 107.177 116.642C107.106 116.542 107.049 116.433 107.004 116.317C106.959 116.201 106.93 116.082 106.917 115.96C106.904 115.837 106.904 115.715 106.923 115.593C106.943 115.471 106.975 115.355 107.023 115.239C107.071 115.126 107.132 115.02 107.209 114.92C107.283 114.824 107.37 114.737 107.466 114.663C107.566 114.589 107.669 114.527 107.785 114.479L118.08 110.089C118.337 109.979 118.607 109.947 118.887 109.995C119.163 110.044 119.404 110.163 119.613 110.353L126.614 116.832C126.829 117.032 126.939 117.279 126.939 117.572V125.758L140.59 139.994C140.731 140.145 140.821 140.323 140.856 140.522C140.892 140.725 140.866 140.924 140.783 141.111C140.696 141.301 140.567 141.449 140.39 141.555C140.214 141.665 140.024 141.713 139.815 141.707L129.301 141.256C129.083 143.76 128.813 147.027 128.777 147.829C128.825 148.006 128.813 148.183 128.735 148.35C128.661 148.559 128.536 148.73 128.356 148.855C128.176 148.994 127.977 149.058 127.755 149.055ZM126.755 147.97C126.752 148.064 126.762 148.154 126.781 148.247C126.768 148.154 126.759 148.064 126.755 147.97ZM115.73 132.388C116.592 133.364 119.337 136.479 122.043 139.592C124.367 142.263 125.91 144.047 126.929 145.263C126.961 144.858 126.993 144.452 127.032 144.05C127.193 142.09 127.366 140.129 127.366 140.129C127.379 140.001 127.411 139.878 127.472 139.759C127.53 139.643 127.607 139.544 127.704 139.457C127.803 139.37 127.913 139.305 128.035 139.264C128.157 139.218 128.282 139.202 128.414 139.206L137.385 139.592L125.203 126.881C125.013 126.688 124.92 126.453 124.92 126.179V118.01L118.527 112.088L109.466 115.957L115.901 121.371C116.151 121.583 116.27 121.853 116.261 122.182L115.73 132.388Z" fill="#C127AD"/>
<path d="M121.05 38.7581C124.833 34.4514 134.708 31.7992 138.574 32.517C146.726 33.1607 154.604 42.8813 152.659 49.3897L147.063 42.9296C144.771 41.787 135.055 44.671 130.146 49.3897C119.771 53.1749 116.608 42.3342 121.05 38.7581Z" fill="#F7931E"/>
<path d="M126.048 51.2081C125.351 51.2274 124.66 51.1502 123.985 50.9796C123.306 50.809 122.664 50.5547 122.053 50.2103C121.445 49.8659 120.892 49.4475 120.397 48.9518C119.902 48.4593 119.481 47.9057 119.137 47.2974C117.354 44.1237 117.89 40.0713 120.352 38.0274C124.396 33.5082 134.582 30.7884 138.709 31.5158C143.267 31.8956 148.188 35.0436 151.271 39.553C153.656 43.0422 154.504 46.7341 153.63 49.676C153.579 49.853 153.482 50.0043 153.347 50.1299C153.212 50.2554 153.051 50.3359 152.871 50.3745C152.691 50.4131 152.515 50.4034 152.341 50.3423C152.168 50.2811 152.02 50.1878 151.897 50.0494L146.462 43.7696C144.485 43.1613 135.582 45.5592 130.85 50.1138C130.747 50.2103 130.632 50.2844 130.497 50.3359C129.07 50.8863 127.585 51.1792 126.048 51.2081ZM137.025 33.3859C132.763 33.3859 124.936 35.8483 121.805 39.4082C121.767 39.4533 121.725 39.4951 121.68 39.5305C119.941 40.9274 119.591 43.9595 120.902 46.2834C121.648 47.6096 123.981 50.4582 129.606 48.4915C134.627 43.7921 144.643 40.5734 147.516 42.0122C147.639 42.0701 147.741 42.1506 147.828 42.2536L151.946 47.0044C151.888 45.0507 151.081 42.8394 149.602 40.6732C146.841 36.624 142.483 33.8237 138.504 33.5147H138.397C137.944 33.4374 137.488 33.3988 137.028 33.4052V33.3859H137.025Z" fill="#C127AD"/>
<path d="M94.6993 37.2871C94.6993 37.2871 99.0675 58.489 99.2475 58.032C99.4307 57.5749 107.412 38.1562 106.798 38.3396C106.181 38.5231 88.0071 47.6547 88.2803 47.6547C88.5568 47.6547 112.011 50.1685 112.011 50.1685L94.6993 37.2871Z" fill="#E6E6E6"/>
<path d="M99.2379 59.0523H99.1479C98.3861 58.9815 98.235 58.3828 97.9843 57.3914C97.8461 56.8442 97.6597 56.0428 97.425 55.016C97.11 53.6126 96.7082 51.7747 96.2132 49.5152C91.9543 49.0613 88.5311 48.704 88.2225 48.6751C88.1036 48.6686 87.9911 48.6461 87.8818 48.601C87.7725 48.556 87.6761 48.4948 87.5861 48.4143C87.4993 48.3371 87.4286 48.2437 87.3707 48.1407C87.3161 48.0345 87.2807 47.9251 87.2614 47.8092C87.1522 47.0818 87.5925 46.8436 88.5536 46.3382C89.0486 46.0743 89.7686 45.7106 90.6011 45.2761C91.7647 44.6774 93.2368 43.9306 94.8568 43.1131C94.1946 39.949 93.6964 37.5317 93.69 37.4931C93.6482 37.2871 93.6675 37.0876 93.7479 36.8944C93.8314 36.7013 93.96 36.5468 94.1368 36.4374C94.3136 36.3247 94.5064 36.27 94.7186 36.2797C94.9275 36.2893 95.1172 36.3537 95.2843 36.4792L100.437 40.316C103.191 38.9383 106.161 37.4802 106.502 37.3708C106.692 37.3161 106.881 37.3161 107.074 37.3708C107.264 37.4255 107.428 37.5221 107.563 37.6669C108.026 38.1819 108.161 38.3268 105.827 44.3201L112.625 49.3574C112.715 49.425 112.789 49.5023 112.854 49.5924C112.918 49.6825 112.963 49.7823 112.992 49.8885C113.024 49.9947 113.037 50.1042 113.03 50.2168C113.024 50.3263 113.001 50.4357 112.96 50.5387C112.918 50.6417 112.863 50.7351 112.793 50.822C112.719 50.9057 112.638 50.9765 112.545 51.0344C112.449 51.0923 112.349 51.1342 112.24 51.1567C112.13 51.1792 112.024 51.1857 111.912 51.176L103.484 50.2716C102.128 53.6545 100.868 56.7541 100.382 57.9354L100.193 58.3957C100.115 58.592 99.99 58.753 99.8132 58.8688C99.6429 58.9944 99.45 59.0523 99.2379 59.0523ZM98.3475 49.7372C98.7525 51.6942 99.1575 53.4646 99.4629 54.8325C100.183 53.0622 100.823 51.4786 101.391 50.0656L98.3475 49.7372ZM104.259 48.3307L108.434 48.7813L105.072 46.2771C104.937 46.6183 104.795 46.9788 104.648 47.3522L104.259 48.3307ZM97.9007 47.6547L102.169 48.1086C102.629 46.9498 103.034 45.9262 103.381 45.025L100.234 42.6817L97.1647 44.2203C97.4089 45.3726 97.6629 46.5249 97.8975 47.6515V47.6547H97.9007ZM91.6972 46.9981L95.7857 47.4294L95.3036 45.1634C93.9793 45.8297 92.7322 46.4606 91.6972 46.9949V46.9981ZM102.269 41.6646L104.149 43.0616C104.628 41.8159 104.959 40.8857 105.22 40.2258C104.406 40.6057 103.391 41.1078 102.269 41.6646ZM96.2261 39.6883C96.3932 40.4994 96.5668 41.3106 96.7436 42.1667L96.8497 42.1152L98.4279 41.3041L96.2261 39.6883Z" fill="#C127AD"/>
<path d="M57.4618 31.4739C57.6322 31.5415 57.7961 31.6284 57.9472 31.7379C58.0982 31.8473 58.2397 31.9761 58.3618 32.1241C58.4872 32.2722 58.5964 32.4396 58.6929 32.6198C58.7861 32.8001 58.8632 32.9964 58.9243 33.2056C58.9854 33.4148 59.0272 33.6305 59.0497 33.859C59.0722 34.0843 59.0786 34.3161 59.0625 34.5543C59.0464 34.7892 59.0143 35.0274 58.9597 35.2656C58.9082 35.5006 58.8375 35.7356 58.7507 35.9641C58.6607 36.1926 58.5579 36.4115 58.4389 36.6239C58.32 36.8364 58.185 37.0327 58.0404 37.2194C57.8925 37.4061 57.735 37.5767 57.5679 37.728C57.4007 37.8792 57.2239 38.0144 57.0407 38.1303C56.8575 38.2462 56.6711 38.3395 56.4782 38.4103C56.2854 38.4844 56.0925 38.5326 55.8997 38.5584C55.7068 38.5841 55.5172 38.5874 55.3307 38.5681C55.1443 38.5487 54.9643 38.5037 54.7907 38.4393C54.6204 38.3717 54.4564 38.2848 54.3054 38.1786C54.1543 38.0691 54.0161 37.9404 53.8907 37.7891C53.7654 37.6411 53.6561 37.4769 53.5597 37.2934C53.4664 37.1132 53.3893 36.9168 53.3282 36.7076C53.2672 36.5016 53.2254 36.2827 53.2029 36.0542C53.1804 35.8289 53.1739 35.5971 53.19 35.359C53.2061 35.1208 53.2382 34.8858 53.2897 34.6476C53.3411 34.4094 53.4118 34.1777 53.4986 33.9491C53.5854 33.7206 53.6882 33.5017 53.8104 33.2893C53.9293 33.0801 54.0611 32.8805 54.2089 32.6938C54.3536 32.5071 54.5143 32.3366 54.6814 32.1853C54.8486 32.0308 55.0254 31.8956 55.2086 31.7829C55.3918 31.6671 55.5814 31.5737 55.7711 31.5029C55.9639 31.4289 56.1568 31.3806 56.3497 31.3548C56.5425 31.3291 56.7322 31.3259 56.9186 31.3452C57.1114 31.3645 57.2914 31.4063 57.4618 31.4739Z" fill="#CB6CE6"/>
<path d="M55.575 39.6047C55.1828 39.6079 54.8036 39.5339 54.4371 39.3955C53.9228 39.183 53.4825 38.8644 53.1161 38.4427C52.7496 38.0211 52.4989 37.5382 52.3639 36.9975C52.2932 36.7175 52.2418 36.431 52.2161 36.1445C52.1903 35.8548 52.1839 35.5684 52.2 35.2787C52.2161 34.989 52.2546 34.7025 52.3157 34.4225C52.3768 34.1392 52.4571 33.8624 52.56 33.5921C52.6628 33.3217 52.785 33.061 52.9296 32.8099C53.0711 32.5588 53.235 32.3207 53.415 32.0921C53.595 31.8668 53.7911 31.6544 54.0032 31.458C54.2153 31.2617 54.4403 31.0814 54.6814 30.9205C54.7939 30.84 54.9096 30.7692 55.0318 30.7048C55.1539 30.6372 55.2761 30.5825 55.4078 30.531C55.5364 30.4795 55.665 30.4409 55.8 30.4055C55.935 30.3701 56.07 30.3443 56.205 30.3282C56.34 30.3089 56.4782 30.3025 56.6164 30.3025C56.7546 30.2993 56.8928 30.3122 57.0278 30.3282C57.1628 30.3443 57.3011 30.3701 57.4328 30.4023C57.5678 30.4377 57.6964 30.4763 57.825 30.5278C57.9536 30.5761 58.0789 30.634 58.2011 30.6984C58.3232 30.7628 58.4389 30.8368 58.5514 30.9141C58.6639 30.9913 58.77 31.0782 58.8761 31.1716C58.9789 31.2649 59.0721 31.3615 59.1653 31.4677C59.2553 31.5707 59.3389 31.6801 59.4128 31.796C59.49 31.9119 59.5607 32.0277 59.6218 32.1533C59.6861 32.2756 59.7375 32.4011 59.7857 32.5331C59.8339 32.6618 59.8725 32.7938 59.9014 32.929C59.9721 33.209 60.0203 33.4955 60.0493 33.782C60.0782 34.0717 60.0814 34.3581 60.0653 34.6478C60.0461 34.9375 60.0075 35.224 59.9496 35.5072C59.8886 35.7905 59.805 36.0673 59.7021 36.3377C59.5993 36.608 59.4771 36.8687 59.3325 37.1198C59.1878 37.3709 59.0271 37.6091 58.8471 37.8344C58.6671 38.0597 58.4711 38.2721 58.2589 38.4685C58.0468 38.6648 57.8186 38.8418 57.5807 39.006C56.97 39.3922 56.3014 39.595 55.575 39.6047ZM56.6839 32.3496C56.3464 32.3625 56.0378 32.4623 55.7582 32.6458C55.4625 32.855 55.2053 33.0996 54.9836 33.3861C54.7618 33.6725 54.585 33.9847 54.4564 34.3195C54.3278 34.6575 54.2507 35.0051 54.225 35.3656C54.1993 35.7261 54.2282 36.0834 54.3086 36.4374C54.3632 36.6692 54.4661 36.8816 54.6171 37.0683C54.7682 37.255 54.9514 37.3998 55.1668 37.5028C55.395 37.5704 55.6296 37.5865 55.8643 37.5479C56.0989 37.5093 56.3175 37.4192 56.5136 37.284C56.8093 37.078 57.0696 36.8301 57.2882 36.5437C57.5068 36.2572 57.6836 35.9482 57.8121 35.6102C57.9407 35.2723 58.0178 34.9246 58.0436 34.5641C58.0693 34.2036 58.0403 33.8463 57.96 33.4923C57.9053 33.2605 57.8025 33.0481 57.6514 32.8614C57.5003 32.6747 57.3171 32.5299 57.1018 32.4269C56.97 32.3722 56.8286 32.3496 56.6839 32.3496Z" fill="#C127AD"/>
<path d="M114.673 8.83652C114.673 9.02321 114.647 9.2099 114.599 9.39336C114.551 9.57683 114.477 9.75708 114.384 9.9309C114.287 10.1047 114.171 10.2689 114.033 10.4266C113.895 10.5811 113.738 10.7259 113.561 10.8611C113.384 10.9931 113.194 11.1122 112.985 11.2152C112.78 11.3214 112.561 11.4083 112.33 11.4791C112.098 11.5531 111.864 11.6046 111.619 11.6433C111.375 11.6787 111.131 11.698 110.88 11.698C110.629 11.698 110.385 11.6787 110.141 11.6433C109.896 11.6046 109.662 11.5531 109.43 11.4791C109.199 11.4051 108.984 11.3182 108.775 11.2152C108.569 11.1122 108.376 10.9931 108.199 10.8611C108.023 10.7291 107.865 10.5843 107.727 10.4266C107.589 10.2689 107.473 10.1047 107.38 9.9309C107.283 9.75708 107.213 9.58005 107.161 9.39336C107.113 9.2099 107.087 9.02321 107.087 8.83652C107.087 8.64662 107.113 8.45993 107.161 8.27646C107.209 8.09299 107.283 7.91274 107.38 7.73893C107.473 7.56512 107.589 7.40096 107.727 7.24646C107.865 7.08874 108.023 6.9439 108.199 6.81193C108.376 6.67996 108.566 6.56087 108.775 6.45787C108.98 6.35487 109.199 6.26474 109.43 6.19393C109.662 6.12312 109.896 6.0684 110.141 6.03299C110.385 5.99437 110.629 5.97827 110.88 5.97827C111.128 5.97827 111.375 5.99758 111.619 6.03299C111.864 6.0684 112.098 6.12312 112.33 6.19393C112.561 6.26796 112.776 6.35487 112.985 6.45787C113.191 6.56408 113.384 6.68318 113.561 6.81193C113.738 6.9439 113.895 7.08874 114.033 7.24646C114.171 7.40418 114.287 7.56833 114.384 7.73893C114.477 7.91274 114.551 8.09299 114.599 8.27646C114.647 8.46315 114.673 8.64662 114.673 8.83652Z" fill="#CB6CE6"/>
<path d="M110.886 12.728C108.231 12.728 106.071 10.9802 106.071 8.83649C106.071 6.68959 108.235 4.94824 110.886 4.94824C113.538 4.94824 115.705 6.68959 115.705 8.83649C115.705 10.9834 113.541 12.728 110.886 12.728ZM110.886 7.00824C109.395 7.00824 108.125 7.83224 108.125 8.83649C108.125 9.84074 109.392 10.668 110.886 10.668C112.378 10.668 113.647 9.84396 113.647 8.83649C113.647 7.82902 112.381 7.00824 110.886 7.00824Z" fill="#C127AD"/>
<path d="M103.87 96.5603C103.87 96.7438 103.844 96.9272 103.799 97.1107C103.751 97.291 103.68 97.468 103.587 97.6386C103.494 97.8092 103.378 97.9733 103.243 98.1246C103.108 98.2791 102.95 98.4207 102.78 98.5495C102.606 98.6815 102.42 98.7973 102.214 98.9003C102.012 99.0033 101.796 99.0902 101.571 99.1578C101.346 99.2286 101.112 99.2834 100.874 99.3188C100.636 99.3542 100.392 99.3735 100.147 99.3735C99.9032 99.3735 99.6621 99.3542 99.421 99.3188C99.1832 99.2834 98.9485 99.2286 98.7235 99.1578C98.4985 99.087 98.2832 99.0001 98.0807 98.9003C97.8782 98.7973 97.6885 98.6815 97.515 98.5495C97.3414 98.4207 97.1871 98.2759 97.0521 98.1246C96.9171 97.9733 96.8014 97.8092 96.7082 97.6386C96.615 97.468 96.5443 97.291 96.496 97.1107C96.4478 96.9305 96.4221 96.747 96.4221 96.5603C96.4221 96.3736 96.4478 96.1934 96.496 96.0099C96.5443 95.8296 96.615 95.6526 96.7082 95.482C96.8014 95.3114 96.9139 95.1473 97.0521 94.996C97.1903 94.8447 97.3446 94.6999 97.515 94.5711C97.6885 94.4391 97.875 94.3233 98.0807 94.2203C98.2832 94.1173 98.4985 94.0304 98.7235 93.9595C98.9485 93.8887 99.1832 93.834 99.421 93.7986C99.6621 93.7632 99.9032 93.7439 100.147 93.7439C100.392 93.7439 100.633 93.7632 100.874 93.7986C101.112 93.834 101.346 93.8887 101.571 93.9595C101.796 94.0304 102.012 94.1173 102.214 94.2203C102.417 94.3233 102.606 94.4391 102.78 94.5711C102.954 94.6999 103.108 94.8447 103.243 94.996C103.378 95.1505 103.494 95.3114 103.587 95.482C103.68 95.6526 103.751 95.8296 103.799 96.0099C103.844 96.1934 103.87 96.3768 103.87 96.5603Z" fill="#CB6CE6"/>
<path d="M100.144 100.391C97.5311 100.391 95.4097 98.6751 95.4097 96.5636C95.4097 94.4521 97.5311 92.7397 100.144 92.7397C102.754 92.7397 104.879 94.4521 104.879 96.5636C104.879 98.6751 102.758 100.391 100.144 100.391ZM100.144 94.7676C98.6722 94.7676 97.4282 95.5787 97.4282 96.5668C97.4282 97.555 98.669 98.3693 100.144 98.3693C101.616 98.3693 102.857 97.5582 102.857 96.5668C102.857 95.5755 101.616 94.7643 100.144 94.7643V94.7676Z" fill="#C127AD"/>
<path d="M162.109 65.9597C162.286 66.0176 162.453 66.0949 162.607 66.1979C162.765 66.3009 162.91 66.4199 163.045 66.5616C163.176 66.7032 163.295 66.8641 163.401 67.0412C163.504 67.2182 163.591 67.4081 163.662 67.6141C163.732 67.8169 163.784 68.0325 163.819 68.2579C163.855 68.4832 163.871 68.7149 163.867 68.9531C163.864 69.1913 163.842 69.4295 163.803 69.6677C163.761 69.9059 163.704 70.1408 163.63 70.3758C163.556 70.6075 163.462 70.8329 163.353 71.0517C163.244 71.2706 163.122 71.4766 162.984 71.6697C162.845 71.8629 162.697 72.0399 162.537 72.2008C162.376 72.3618 162.209 72.5066 162.032 72.6289C161.855 72.7544 161.672 72.8574 161.482 72.9379C161.296 73.0216 161.106 73.0795 160.914 73.1149C160.724 73.1504 160.534 73.1632 160.348 73.1536C160.161 73.1407 159.978 73.1085 159.805 73.0506C159.628 72.9926 159.461 72.9154 159.306 72.8124C159.149 72.7126 159.004 72.5903 158.869 72.4487C158.737 72.307 158.619 72.1461 158.512 71.9691C158.41 71.792 158.323 71.6021 158.252 71.3961C158.181 71.1901 158.13 70.9745 158.095 70.7492C158.059 70.5239 158.043 70.2921 158.046 70.0539C158.05 69.8189 158.072 69.5808 158.111 69.3394C158.152 69.1012 158.21 68.863 158.284 68.6312C158.361 68.3995 158.451 68.1742 158.561 67.9553C158.67 67.7364 158.792 67.5336 158.93 67.3373C159.065 67.1442 159.216 66.9671 159.374 66.8062C159.535 66.6453 159.705 66.5004 159.882 66.3781C160.059 66.2526 160.242 66.1496 160.431 66.0691C160.618 65.9854 160.807 65.9275 161 65.8921C161.193 65.8567 161.38 65.8438 161.569 65.8534C161.756 65.8695 161.936 65.9049 162.109 65.9597Z" fill="#CB6CE6"/>
<path d="M160.412 73.9166C160.081 73.9198 159.756 73.8683 159.441 73.7685C158.918 73.5818 158.461 73.2857 158.072 72.8834C157.686 72.481 157.41 72.0111 157.243 71.4768C157.066 70.9231 156.979 70.3534 156.983 69.7708C156.989 69.1882 157.085 68.6217 157.272 68.0713C158.082 65.5832 160.361 64.0865 162.37 64.7399C162.894 64.9266 163.35 65.2227 163.739 65.6251C164.125 66.0274 164.401 66.4942 164.568 67.0285C164.745 67.5821 164.832 68.1518 164.829 68.7344C164.822 69.317 164.729 69.8835 164.543 70.4371C163.861 72.5261 162.135 73.9166 160.412 73.9166ZM161.383 66.6261C160.534 66.6261 159.592 67.4887 159.194 68.7119C158.953 69.4136 158.94 70.1217 159.159 70.833C159.226 71.0616 159.335 71.2676 159.496 71.4478C159.657 71.6281 159.846 71.7632 160.068 71.8534C160.994 72.1527 162.161 71.2257 162.614 69.8288C162.858 69.1271 162.868 68.419 162.653 67.7076C162.588 67.4759 162.476 67.2731 162.315 67.0928C162.158 66.9126 161.965 66.7774 161.743 66.6873C161.627 66.6422 161.505 66.6165 161.38 66.61V66.6261H161.383Z" fill="#C127AD"/>
<path d="M107.929 115.641L165.738 90.2002L107.929 115.641Z" fill="#CB6CE6"/>
<path d="M107.929 116.658C107.814 116.658 107.701 116.639 107.592 116.6C107.482 116.562 107.383 116.504 107.293 116.433C107.203 116.359 107.129 116.272 107.068 116.175C107.007 116.076 106.965 115.969 106.942 115.857C106.917 115.744 106.914 115.628 106.93 115.512C106.946 115.397 106.981 115.287 107.032 115.184C107.087 115.081 107.155 114.991 107.238 114.91C107.322 114.83 107.418 114.769 107.524 114.721L165.349 89.2763C165.471 89.2184 165.603 89.1862 165.738 89.1798C165.876 89.1734 166.008 89.1959 166.137 89.2442C166.265 89.2924 166.378 89.3633 166.477 89.4566C166.577 89.5499 166.654 89.6594 166.709 89.7881C166.764 89.9137 166.792 90.0424 166.792 90.1808C166.796 90.3192 166.767 90.4512 166.715 90.5767C166.664 90.7055 166.59 90.8149 166.494 90.9115C166.397 91.008 166.285 91.0821 166.156 91.1336L108.331 116.571C108.206 116.629 108.071 116.658 107.929 116.658Z" fill="#C127AD"/>
<path d="M206.508 29.5885L205.58 26.6798L202.337 25.2716L205.814 24.6324L207.373 22.0082L208.301 24.9169L211.544 26.3251L208.067 26.9643L206.508 29.5885Z" fill="#A02D91" fill-opacity="0.24"/>
<path d="M44.6032 7.65321L43.6756 4.74448L40.4325 3.33634L43.9092 2.69711L45.4682 0.072907L46.3958 2.98164L49.639 4.38978L46.1622 5.02901L44.6032 7.65321Z" fill="#A02D91" fill-opacity="0.24"/>
<path d="M174.127 44.8417L175.725 41.8716L179.217 41.1045L175.988 39.5684L175.1 36.3138L173.502 39.2838L170.01 40.051L173.239 41.5871L174.127 44.8417Z" fill="#A02D91" fill-opacity="0.5"/>
</g>
<defs>
<clipPath id="clip0_134_2579">
<rect width="243" height="206" fill="white" transform="translate(0 0.5)"/>
</clipPath>
</defs>
</svg>
