<svg width="284" height="179" viewBox="0 0 284 179" fill="none" xmlns="http://www.w3.org/2000/svg">
<path d="M278.865 25L277.551 27.9196L274 29L277.551 30.0804L278.865 33L280.179 30.0804L283.729 29L280.179 27.9196L278.865 25Z" fill="#A02D91" fill-opacity="0.75"/>
<path d="M16.8649 0L15.5509 2.91964L12 4L15.5509 5.08036L16.8649 8L18.1788 5.08036L21.7297 4L18.1788 2.91964L16.8649 0Z" fill="#A02D91" fill-opacity="0.75"/>
<path d="M247.865 170L246.551 173.285L243 174.5L246.551 175.715L247.865 179L249.179 175.715L252.729 174.5L249.179 173.285L247.865 170Z" fill="#A02D91" fill-opacity="0.5"/>
<path d="M139.865 143L138.551 146.285L135 147.5L138.551 148.715L139.865 152L141.179 148.715L144.729 147.5L141.179 146.285L139.865 143Z" fill="#A02D91" fill-opacity="0.5"/>
<path d="M90.8646 161L89.5507 164.285L85.9998 165.5L89.5507 166.715L90.8646 170L92.1786 166.715L95.7295 165.5L92.1786 164.285L90.8646 161Z" fill="#A02D91" fill-opacity="0.5"/>
<path d="M44.8646 148L43.5507 151.285L39.9998 152.5L43.5507 153.715L44.8646 157L46.1786 153.715L49.7295 152.5L46.1786 151.285L44.8646 148Z" fill="#A02D91" fill-opacity="0.5"/>
<path d="M16.8649 64L15.5509 67.2846L12 68.5L15.5509 69.7154L16.8649 73L18.1788 69.7154L21.7297 68.5L18.1788 67.2846L16.8649 64Z" fill="#A02D91" fill-opacity="0.5"/>
<path d="M192.865 16L191.551 19.2846L188 20.5L191.551 21.7154L192.865 25L194.179 21.7154L197.729 20.5L194.179 19.2846L192.865 16Z" fill="#A02D91" fill-opacity="0.5"/>
<path d="M4.86486 136L6.17882 138.92L9.72973 140L6.17882 141.08L4.86486 144L3.55091 141.08L0 140L3.55091 138.92L4.86486 136Z" fill="#A02D91" fill-opacity="0.24"/>
<path d="M270.865 136L272.179 138.92L275.73 140L272.179 141.08L270.865 144L269.551 141.08L266 140L269.551 138.92L270.865 136Z" fill="#A02D91" fill-opacity="0.24"/>
<path d="M268.865 73L270.179 75.9196L273.73 77L270.179 78.0804L268.865 81L267.551 78.0804L264 77L267.551 75.9196L268.865 73Z" fill="#A02D91" fill-opacity="0.24"/>
<path d="M220.865 149L222.179 151.92L225.73 153L222.179 154.08L220.865 157L219.551 154.08L216 153L219.551 151.92L220.865 149Z" fill="#A02D91" fill-opacity="0.24"/>
</svg>
