<svg width="40" height="24" viewBox="0 0 40 24" fill="none" xmlns="http://www.w3.org/2000/svg">
<path d="M9.18908 14L10.503 16.9196L14.0539 18L10.503 19.0804L9.18908 22L7.87513 19.0804L4.32422 18L7.87513 16.9196L9.18908 14Z" fill="#A02D91" fill-opacity="0.24"/>
<path d="M35.1351 16L36.4491 18.9196L40 20L36.4491 21.0804L35.1351 24L33.8212 21.0804L30.2703 20L33.8212 18.9196L35.1351 16Z" fill="#A02D91" fill-opacity="0.15"/>
<path d="M30.8109 0L32.1249 2.91964L35.6758 4L32.1249 5.08036L30.8109 8L29.497 5.08036L25.946 4L29.497 2.91964L30.8109 0Z" fill="#A02D91" fill-opacity="0.5"/>
<path d="M22.1622 8L23.4762 11.2846L27.0271 12.5L23.4762 13.7154L22.1622 17L20.8483 13.7154L17.2974 12.5L20.8483 11.2846L22.1622 8Z" fill="#A02D91" fill-opacity="0.5"/>
<path d="M4.86486 0L6.17882 2.91964L9.72973 4L6.17882 5.08036L4.86486 8L3.55091 5.08036L0 4L3.55091 2.91964L4.86486 0Z" fill="#A02D91" fill-opacity="0.75"/>
</svg>
